<?xml version="1.0" standalone="no"?>
<!DOCTYPE svg PUBLIC "-//W3C//DTD SVG 20010904//EN"
 "http://www.w3.org/TR/2001/REC-SVG-20010904/DTD/svg10.dtd">
<svg version="1.0" xmlns="http://www.w3.org/2000/svg"
 width="400.000000pt" height="329.000000pt" viewBox="0 0 400.000000 329.000000"
 preserveAspectRatio="xMidYMid meet">

<g transform="translate(0.000000,329.000000) scale(0.100000,-0.100000)"
fill="#000000" stroke="none">
<path d="M840 2355 l0 -335 555 0 555 0 0 335 0 335 -555 0 -555 0 0 -335z"/>
<path d="M2070 2355 l0 -335 555 0 555 0 0 335 0 335 -555 0 -555 0 0 -335z"/>
<path d="M840 1605 l0 -335 555 0 555 0 0 335 0 335 -555 0 -555 0 0 -335z"/>
<path d="M2070 1605 l0 -335 555 0 555 0 0 335 0 335 -555 0 -555 0 0 -335z"/>
<path d="M740 970 l0 -180 100 0 100 0 0 90 0 90 480 0 480 0 0 -90 0 -90 100
0 100 0 0 90 0 90 480 0 480 0 0 -90 0 -90 100 0 100 0 0 180 0 180 -1260 0
-1260 0 0 -180z"/>
</g>
</svg>
