<?xml version="1.0" standalone="no"?>
<!DOCTYPE svg PUBLIC "-//W3C//DTD SVG 20010904//EN"
 "http://www.w3.org/TR/2001/REC-SVG-20010904/DTD/svg10.dtd">
<svg version="1.0" xmlns="http://www.w3.org/2000/svg"
 width="512.000000pt" height="512.000000pt" viewBox="0 0 512.000000 512.000000"
 preserveAspectRatio="xMidYMid meet">

<g transform="translate(0.000000,512.000000) scale(0.100000,-0.100000)"
fill="#000000" stroke="none">
<path d="M1570 4447 c-683 -292 -827 -357 -837 -377 -10 -20 -13 -257 -13
-1096 l0 -1071 -191 -79 c-104 -44 -201 -89 -215 -101 l-24 -22 0 -259 c0
-233 2 -262 17 -280 21 -24 277 -142 308 -142 12 0 73 23 137 50 64 28 124 50
135 50 10 0 52 -15 95 -32 l76 -33 4 -107 c3 -92 6 -110 23 -126 11 -11 84
-47 163 -81 l143 -61 102 41 c56 23 119 48 139 57 37 14 39 14 160 -38 68 -29
129 -57 136 -62 8 -7 12 -43 12 -112 0 -55 4 -107 8 -114 9 -13 316 -152 338
-152 18 0 327 128 351 145 15 11 19 31 21 123 l4 109 246 107 c136 58 253 106
260 106 7 0 68 -22 134 -50 66 -27 129 -50 140 -50 24 0 386 154 410 174 15
14 18 32 18 124 l0 109 170 72 170 72 128 -55 c70 -31 134 -56 141 -56 21 0
314 129 333 147 16 15 18 41 18 283 0 198 -3 270 -12 282 -7 9 -166 82 -353
161 l-340 145 -5 911 c-4 805 -7 912 -21 926 -23 23 -1628 707 -1669 711 -28
3 -199 -67 -860 -349z m1161 99 c160 -68 292 -126 294 -128 2 -2 -328 -146
-733 -320 l-736 -317 -301 129 c-165 71 -299 132 -298 137 2 11 1434 621 1461
622 13 1 154 -55 313 -123z m807 -343 c191 -80 350 -149 355 -153 9 -8 -1444
-630 -1472 -630 -11 0 -175 67 -366 148 l-346 149 398 171 c219 94 549 237
733 316 184 80 339 145 343 145 5 1 165 -65 355 -146z m-1920 -578 l742 -317
0 -999 0 -998 -29 -16 c-29 -15 -41 -10 -748 292 -395 168 -724 310 -730 316
-10 7 -13 225 -13 1029 0 967 1 1020 18 1016 9 -3 351 -148 760 -323z m2382
-698 l0 -1024 -753 -321 c-414 -177 -756 -322 -760 -322 -4 0 -7 459 -7 1020
0 962 1 1020 18 1031 25 16 1475 637 1490 638 9 1 12 -210 12 -1022z m180
-837 c0 -4 -13 -13 -30 -19 -29 -10 -30 -9 -30 19 0 28 1 29 30 19 17 -6 30
-15 30 -19z m296 -121 c65 -28 123 -55 127 -59 4 -4 -515 -229 -1153 -500
l-1162 -492 -124 53 c-69 29 -127 55 -129 59 -2 4 56 33 130 64 l134 58 60
-27 60 -27 813 347 c447 191 822 351 833 355 34 13 53 43 57 88 l3 43 100 44
c55 23 107 43 116 44 8 1 69 -22 135 -50z m234 -337 l0 -178 -85 -36 -85 -36
0 79 c0 66 -3 82 -20 99 -11 11 -28 20 -37 20 -24 0 -692 -284 -715 -304 -15
-14 -18 -32 -18 -124 l0 -109 -112 -48 c-62 -26 -119 -50 -125 -52 -10 -4 -13
15 -13 76 0 68 -3 84 -20 101 -11 11 -27 20 -35 20 -12 0 -730 -307 -868 -371
-33 -15 -36 -27 -40 -148 l-2 -94 -90 -38 -90 -37 -3 180 c-1 100 -1 182 0
183 8 6 2344 995 2351 995 4 0 7 -80 7 -178z m-3824 123 c59 -25 109 -47 111
-48 2 -2 -58 -30 -133 -62 l-135 -58 -102 43 c-56 24 -105 46 -109 49 -4 4 52
32 125 63 72 31 133 57 134 57 0 1 50 -19 109 -44z m385 -164 l114 -50 -35
-15 c-19 -8 -77 -33 -129 -55 -52 -23 -102 -41 -111 -41 -18 0 -200 76 -213
89 -6 6 222 113 254 120 3 0 57 -21 120 -48z m54 -391 c490 -210 893 -385 898
-389 4 -4 6 -86 5 -183 l-3 -175 -85 36 -85 37 -3 112 c-2 103 -4 113 -25 126
-12 8 -155 72 -316 141 -206 88 -304 125 -325 123 -41 -4 -56 -36 -56 -120 0
-38 -3 -68 -7 -68 -5 0 -37 15 -73 33 l-65 32 -3 106 c-2 86 -6 109 -20 122
-21 18 -531 237 -553 237 -35 0 -54 -39 -59 -120 l-5 -77 -65 31 -65 31 -3
179 c-2 141 0 177 10 173 7 -2 413 -176 903 -387z m323 229 c53 -23 101 -44
105 -48 4 -5 -53 -33 -127 -64 l-136 -57 -110 47 c-61 26 -107 50 -103 54 13
13 237 107 256 108 10 1 62 -17 115 -40z m2770 -33 c-3 -13 -7 -13 -28 -1
l-25 14 25 9 c26 10 34 3 28 -22z m-2391 -128 c54 -23 101 -44 106 -48 4 -4
-54 -33 -128 -65 l-136 -58 -102 43 c-56 24 -105 46 -110 50 -7 6 234 117 260
119 6 1 56 -18 110 -41z m-1307 -68 c11 -7 9 -11 -13 -19 -37 -14 -37 -14 -37
9 0 21 24 27 50 10z m2657 -257 c-3 -2 -15 1 -28 7 l-22 13 24 13 c22 11 24
11 27 -8 2 -11 1 -22 -1 -25z m-1884 -75 c21 -11 21 -11 2 -19 -33 -13 -45
-10 -45 11 0 23 12 25 43 8z"/>
<path d="M1303 3385 c-46 -20 -68 -68 -54 -115 6 -21 17 -43 24 -49 8 -6 130
-60 273 -121 177 -75 271 -110 297 -110 90 0 129 118 56 172 -25 19 -496 221
-539 231 -14 3 -39 0 -57 -8z"/>
</g>
</svg>
